<svg width="50" height="50" viewBox="0 0 50 50" fill="none" xmlns="http://www.w3.org/2000/svg">
<g id="mingcute:user-4-fill" clip-path="url(#clip0_684_18795)">
<g id="Group">
<path id="Vector" fill-rule="evenodd" clip-rule="evenodd" d="M24.9993 4.1665C13.4931 4.1665 4.16602 13.4936 4.16602 24.9998C4.16602 36.5061 13.4931 45.8332 24.9993 45.8332C36.5056 45.8332 45.8327 36.5061 45.8327 24.9998C45.8327 13.4936 36.5056 4.1665 24.9993 4.1665ZM17.7077 19.7915C17.7077 18.8339 17.8963 17.8858 18.2627 17.0011C18.6292 16.1164 19.1663 15.3126 19.8434 14.6355C20.5205 13.9584 21.3243 13.4213 22.2089 13.0549C23.0936 12.6884 24.0418 12.4998 24.9993 12.4998C25.9569 12.4998 26.9051 12.6884 27.7897 13.0549C28.6744 13.4213 29.4782 13.9584 30.1553 14.6355C30.8324 15.3126 31.3695 16.1164 31.736 17.0011C32.1024 17.8858 32.291 18.8339 32.291 19.7915C32.291 21.7254 31.5228 23.58 30.1553 24.9475C28.7879 26.3149 26.9332 27.0832 24.9993 27.0832C23.0655 27.0832 21.2108 26.3149 19.8434 24.9475C18.4759 23.58 17.7077 21.7254 17.7077 19.7915ZM38.0368 35.3832C36.4773 37.3449 34.4948 38.9289 32.2372 40.0169C29.9796 41.1049 27.5054 41.6688 24.9993 41.6665C22.4933 41.6688 20.0191 41.1049 17.7615 40.0169C15.5039 38.9289 13.5214 37.3449 11.9618 35.3832C15.3389 32.9603 19.9473 31.2498 24.9993 31.2498C30.0514 31.2498 34.6598 32.9603 38.0368 35.3832Z" fill="black"/>
</g>
</g>
<defs>
<clipPath id="clip0_684_18795">
<rect width="50" height="50" fill="white"/>
</clipPath>
</defs>
</svg>
