<svg width="50" height="50" viewBox="0 0 50 50" fill="none" xmlns="http://www.w3.org/2000/svg">
<g id="mingcute:user-4-line" clip-path="url(#clip0_684_19144)">
<g id="Group">
<path id="Vector" fill-rule="evenodd" clip-rule="evenodd" d="M24.9994 4.1665C36.5056 4.1665 45.8327 13.4936 45.8327 24.9998C45.8401 29.808 44.1773 34.4694 41.1285 38.1873L41.1702 38.2332L40.8952 38.4665C38.9415 40.7774 36.5068 42.6339 33.7613 43.9063C31.0157 45.1786 28.0254 45.8363 24.9994 45.8332C18.8535 45.8332 13.3327 43.1728 9.52021 38.9436L9.10354 38.4644L8.82854 38.2353L8.8702 38.1853C5.82178 34.4679 4.159 29.8073 4.16604 24.9998C4.16604 13.4936 13.4931 4.1665 24.9994 4.1665ZM24.9994 35.4165C21.1244 35.4165 17.6223 36.6498 15.014 38.3457C17.894 40.5066 21.3988 41.6722 24.9994 41.6665C28.6 41.6722 32.1048 40.5066 34.9848 38.3457C32.0043 36.4358 28.5393 35.4194 24.9994 35.4165ZM24.9994 8.33317C21.863 8.33308 18.7902 9.21799 16.1342 10.8862C13.4782 12.5544 11.3469 14.9382 9.98512 17.7635C8.62336 20.5889 8.08646 23.7412 8.43614 26.858C8.78582 29.9749 10.0079 32.9298 11.9619 35.3832C15.339 32.9603 19.9473 31.2498 24.9994 31.2498C30.0515 31.2498 34.6598 32.9603 38.0369 35.3832C39.9909 32.9298 41.2129 29.9749 41.5626 26.858C41.9123 23.7412 41.3754 20.5889 40.0136 17.7635C38.6519 14.9382 36.5205 12.5544 33.8645 10.8862C31.2086 9.21799 28.1358 8.33308 24.9994 8.33317ZM24.9994 12.4998C27.2095 12.4998 29.3291 13.3778 30.8919 14.9406C32.4547 16.5034 33.3327 18.623 33.3327 20.8332C33.3327 23.0433 32.4547 25.1629 30.8919 26.7257C29.3291 28.2885 27.2095 29.1665 24.9994 29.1665C22.7892 29.1665 20.6696 28.2885 19.1068 26.7257C17.544 25.1629 16.666 23.0433 16.666 20.8332C16.666 18.623 17.544 16.5034 19.1068 14.9406C20.6696 13.3778 22.7892 12.4998 24.9994 12.4998ZM24.9994 16.6665C23.8943 16.6665 22.8345 17.1055 22.0531 17.8869C21.2717 18.6683 20.8327 19.7281 20.8327 20.8332C20.8327 21.9382 21.2717 22.998 22.0531 23.7794C22.8345 24.5608 23.8943 24.9998 24.9994 24.9998C26.1044 24.9998 27.1642 24.5608 27.9456 23.7794C28.727 22.998 29.166 21.9382 29.166 20.8332C29.166 19.7281 28.727 18.6683 27.9456 17.8869C27.1642 17.1055 26.1044 16.6665 24.9994 16.6665Z" fill="black"/>
</g>
</g>
<defs>
<clipPath id="clip0_684_19144">
<rect width="50" height="50" fill="white"/>
</clipPath>
</defs>
</svg>
